<?xml version="1.0" standalone="no"?>
<!DOCTYPE svg PUBLIC "-//W3C//DTD SVG 20010904//EN"
 "http://www.w3.org/TR/2001/REC-SVG-20010904/DTD/svg10.dtd">
<svg version="1.0" xmlns="http://www.w3.org/2000/svg"
 width="348.000000pt" height="60.000000pt" viewBox="0 0 348.000000 60.000000"
 preserveAspectRatio="xMidYMid meet">

<g transform="translate(0.000000,60.000000) scale(0.100000,-0.100000)"
fill="#000000" stroke="none">
<path d="M58 584 c-45 -24 -58 -62 -58 -169 0 -78 3 -95 15 -95 12 0 15 15 15
73 l1 72 84 -88 84 -87 3 -143 c4 -180 22 -192 26 -17 l3 125 119 -125 119
-125 1 133 c0 109 -2 132 -15 132 -11 0 -15 -20 -17 -98 l-3 -97 -102 108
-103 109 0 105 c0 118 -13 158 -59 186 -35 21 -77 21 -113 1z m117 -39 c23
-22 25 -31 25 -122 l-1 -98 -84 90 c-47 50 -85 94 -85 99 0 6 10 20 22 33 30
32 90 32 123 -2z"/>
<path d="M320 460 c0 -118 2 -140 15 -140 13 0 15 22 15 140 0 118 -2 140 -15
140 -13 0 -15 -22 -15 -140z"/>
<path d="M440 460 c0 -118 2 -140 15 -140 13 0 15 22 15 140 0 118 -2 140 -15
140 -13 0 -15 -22 -15 -140z"/>
<path d="M703 389 c14 -8 17 -25 17 -104 0 -79 -3 -96 -17 -104 -14 -8 -5 -10
37 -10 42 0 51 2 38 10 -13 7 -18 23 -18 54 l0 45 60 0 60 0 0 -45 c0 -31 -5
-47 -17 -54 -14 -8 -7 -10 32 -10 39 0 46 2 33 10 -15 8 -18 25 -18 104 0 79
3 96 18 104 13 8 6 10 -33 10 -39 0 -46 -2 -32 -10 11 -7 17 -22 17 -49 l0
-40 -60 0 -60 0 0 40 c0 27 6 42 18 49 13 8 4 10 -38 10 -42 0 -51 -2 -37 -10z"/>
<path d="M1084 390 c-57 -23 -84 -117 -48 -168 47 -67 161 -67 208 0 20 29 20
97 0 126 -31 45 -105 64 -160 42z m118 -31 c46 -55 23 -155 -38 -172 -75 -21
-133 59 -103 139 8 21 26 45 39 52 32 16 80 8 102 -19z"/>
<path d="M1325 379 c-8 -25 2 -39 11 -15 4 11 18 16 45 16 l39 0 0 -95 c0 -79
-3 -96 -17 -104 -14 -8 -5 -10 37 -10 42 0 51 2 38 10 -15 8 -18 25 -18 104
l0 95 35 0 c22 0 38 -6 41 -15 10 -24 22 -17 16 10 -4 25 -5 25 -112 25 -101
0 -109 -1 -115 -21z"/>
<path d="M1623 389 c14 -8 17 -25 17 -104 0 -79 -3 -96 -17 -104 -13 -8 7 -10
75 -11 l92 0 0 28 c-1 23 -2 24 -11 10 -7 -13 -23 -18 -54 -18 l-45 0 0 45 c0
41 2 45 25 45 16 0 25 -6 25 -15 0 -8 5 -15 10 -15 6 0 10 18 10 40 0 22 -4
40 -10 40 -5 0 -10 -7 -10 -15 0 -9 -9 -15 -25 -15 -22 0 -25 4 -25 40 0 40 0
40 40 40 27 0 42 -6 49 -17 9 -15 10 -14 11 10 l0 27 -87 0 c-65 -1 -83 -3
-70 -11z"/>
<path d="M1870 393 c26 -10 30 -25 30 -110 0 -62 -4 -85 -16 -98 -15 -14 -9
-16 77 -13 92 3 94 4 97 28 2 22 1 23 -8 8 -8 -14 -24 -18 -65 -18 l-55 0 0
95 c0 79 3 96 18 104 13 8 4 10 -38 10 -30 0 -48 -3 -40 -6z"/>
<path d="M2289 300 c-23 -56 -52 -108 -63 -116 -19 -13 -17 -14 24 -14 38 0
42 2 26 13 -15 11 -16 17 -5 40 11 24 18 27 60 27 45 0 48 -2 54 -31 5 -22 3
-34 -6 -40 -9 -6 4 -9 36 -9 37 1 46 3 34 10 -9 5 -36 54 -59 107 -23 54 -46
102 -50 106 -4 5 -27 -37 -51 -93z m57 15 c7 -19 14 -39 14 -45 0 -10 -52 -14
-62 -4 -5 5 23 84 30 84 2 0 10 -16 18 -35z"/>
<path d="M2518 384 c20 -14 22 -24 22 -99 0 -63 -4 -87 -16 -100 -15 -14 -9
-16 77 -13 92 3 94 4 97 28 2 22 1 23 -8 8 -8 -14 -24 -18 -65 -18 l-55 0 0
95 c0 79 3 96 18 104 13 8 4 10 -38 11 -52 0 -53 -1 -32 -16z"/>
<path d="M2768 384 c20 -14 22 -24 22 -99 0 -63 -4 -87 -16 -100 -15 -14 -9
-16 77 -13 92 3 94 4 97 28 2 22 1 23 -8 8 -8 -14 -24 -18 -65 -18 l-55 0 0
95 c0 79 3 96 18 104 13 8 4 10 -38 11 -52 0 -53 -1 -32 -16z"/>
<path d="M3083 389 c14 -8 17 -25 17 -104 0 -79 -3 -96 -17 -104 -14 -8 -5
-10 37 -10 42 0 51 2 38 10 -15 8 -18 25 -18 104 0 79 3 96 18 104 13 8 4 10
-38 10 -42 0 -51 -2 -37 -10z"/>
<path d="M3253 389 c14 -8 17 -25 17 -104 0 -79 -3 -96 -17 -104 -14 -8 -9
-10 25 -11 l42 0 -20 20 c-16 16 -20 33 -20 90 0 39 2 70 3 70 2 0 37 -41 78
-92 l74 -92 3 100 c2 86 5 101 23 117 21 17 20 17 -22 17 -37 0 -40 -2 -25
-13 14 -10 16 -25 14 -87 l-3 -74 -70 87 c-54 67 -76 87 -95 87 -22 -1 -23 -2
-7 -11z"/>
<path d="M0 140 c0 -80 4 -130 10 -130 6 0 10 50 10 130 0 80 -4 130 -10 130
-6 0 -10 -50 -10 -130z"/>
</g>
</svg>
